<?xml version="1.0"?>
<svg xmlns="http://www.w3.org/2000/svg" xmlns:xlink="http://www.w3.org/1999/xlink" xmlns:svgjs="http://svgjs.com/svgjs" version="1.1" width="512" height="512" x="0" y="0" viewBox="0 0 512 512" style="enable-background:new 0 0 512 512" xml:space="preserve" class=""><g><g xmlns="http://www.w3.org/2000/svg"><path d="m499.5 422h-10v-304.92c0-20.678-16.822-37.5-37.5-37.5h-117.191c.113-11.477-2.186-22.566-6.849-32.967-1.695-3.78-6.131-5.472-9.912-3.776-3.78 1.693-5.471 6.131-3.777 9.911 3.682 8.216 5.549 16.987 5.549 26.072 0 16.374-6.204 31.323-16.377 42.633-3.364-12.738-12.055-23.325-23.534-29.244 6.171-6.144 9.997-14.641 9.997-24.016 0-18.696-15.21-33.906-33.906-33.906s-33.906 15.21-33.906 33.906c0 9.375 3.826 17.872 9.997 24.016-11.479 5.919-20.17 16.506-23.534 29.244-10.173-11.31-16.377-26.259-16.377-42.633-.001-35.19 28.629-63.82 63.82-63.82 14.175 0 27.594 4.547 38.807 13.149 3.287 2.522 7.994 1.901 10.516-1.385 2.521-3.287 1.901-7.995-1.385-10.516-13.856-10.629-30.433-16.248-47.938-16.248-43.759 0-79.242 35.833-78.809 79.58h-117.191c-20.678 0-37.5 16.822-37.5 37.5v304.92h-10c-6.893 0-12.5 5.607-12.5 12.5v34.549c0 23.683 19.268 42.951 42.951 42.951h426.098c23.683 0 42.951-19.268 42.951-42.951v-34.549c0-6.893-5.607-12.5-12.5-12.5zm-243.5-372.713c10.425 0 18.906 8.481 18.906 18.906s-8.481 18.907-18.906 18.907-18.906-8.481-18.906-18.906 8.481-18.907 18.906-18.907zm-2.85 52.813h5.7c17.025 0 30.893 13.743 31.11 30.717-9.843 6.213-21.485 9.825-33.96 9.825s-24.117-3.612-33.96-9.825c.217-16.975 14.085-30.717 31.11-30.717zm94.679 204.358h5.7c17.025 0 30.893 13.743 31.11 30.717-9.843 6.213-21.485 9.825-33.96 9.825s-24.117-3.612-33.96-9.825c.217-16.974 14.085-30.717 31.11-30.717zm-16.056-33.906c0-10.425 8.481-18.906 18.906-18.906s18.906 8.481 18.906 18.906-8.481 18.906-18.906 18.906-18.906-8.481-18.906-18.906zm42.816 24.016c6.171-6.144 9.997-14.641 9.997-24.016 0-18.696-15.21-33.906-33.906-33.906s-33.906 15.21-33.906 33.906c0 9.375 3.826 17.872 9.997 24.016-11.479 5.919-20.17 16.506-23.534 29.244-10.173-11.31-16.377-26.259-16.377-42.632 0-35.191 28.63-63.821 63.821-63.821s63.821 28.63 63.821 63.821c0 16.374-6.203 31.322-16.377 42.632-3.366-12.738-12.057-23.325-23.536-29.244zm-102.703-11.568h-31.772c.697-30.946-16.639-58.262-42.456-71.731l38.765-58.11c6.262 1.611 12.818 2.483 19.577 2.483s13.315-.871 19.577-2.483l38.765 58.11c-25.792 13.477-43.193 40.726-42.456 71.731zm-113.415 21.458h5.7c17.025 0 30.893 13.743 31.11 30.717-9.843 6.213-21.485 9.825-33.96 9.825s-24.117-3.612-33.96-9.825c.217-16.974 14.085-30.717 31.11-30.717zm-16.056-33.906c0-10.425 8.481-18.906 18.906-18.906s18.906 8.481 18.906 18.906-8.481 18.906-18.906 18.906-18.906-8.481-18.906-18.906zm42.815 24.016c6.171-6.144 9.997-14.641 9.997-24.016 0-18.696-15.21-33.906-33.906-33.906s-33.906 15.21-33.906 33.906c0 9.375 3.826 17.872 9.997 24.016-11.479 5.919-20.17 16.506-23.534 29.244-10.175-11.31-16.378-26.259-16.378-42.632 0-35.191 28.63-63.821 63.821-63.821s63.821 28.63 63.821 63.821c0 16.374-6.203 31.322-16.377 42.632-3.364-12.738-12.056-23.325-23.535-29.244zm-147.73-179.488c0-12.406 10.093-22.5 22.5-22.5h118.772c1.061 5.204 2.636 10.222 4.672 15h-119.444c-6.341 0-11.5 5.159-11.5 11.5v128.609c0 4.143 3.358 7.5 7.5 7.5s7.5-3.357 7.5-7.5v-125.109h124.375c7.709 10.774 18.123 19.503 30.053 25.276l-38.481 57.685c-7.025-2.059-14.445-3.183-22.126-3.183-43.462 0-78.821 35.359-78.821 78.821 0 43.671 36.009 78.82 78.821 78.82 36.898 0 69.191-26.086 77.011-62h35.337c7.766 35.836 40.3 62 77.011 62 43.023 0 78.821-35.492 78.821-78.82 0-43.462-35.359-78.821-78.821-78.821-7.682 0-15.101 1.125-22.126 3.183l-38.481-57.685c11.952-5.769 22.334-14.489 30.053-25.276h124.374v252.42h-377v-92.311c0-4.143-3.358-7.5-7.5-7.5s-7.5 3.357-7.5 7.5v95.811c0 6.341 5.159 11.5 11.5 11.5h384c6.341 0 11.5-5.159 11.5-11.5v-259.42c0-6.341-5.159-11.5-11.5-11.5h-119.444c2.035-4.778 3.61-9.796 4.672-15h118.772c12.407 0 22.5 10.094 22.5 22.5v304.92h-437zm253.955 319.92v12.5c0 1.379-1.122 2.5-2.5 2.5h-65.91c-1.378 0-2.5-1.121-2.5-2.5v-12.5zm205.545 32.049c0 15.412-12.539 27.951-27.951 27.951h-426.098c-15.412 0-27.951-12.539-27.951-27.951v-32.049h190.545v12.5c0 9.649 7.851 17.5 17.5 17.5h65.91c9.649 0 17.5-7.851 17.5-17.5v-12.5h190.545z" fill="#acb6e5" data-original="#000000" style=""/></g></g></svg>
